<?xml version="1.0" standalone="no"?>
<!DOCTYPE svg PUBLIC "-//W3C//DTD SVG 20010904//EN"
 "http://www.w3.org/TR/2001/REC-SVG-20010904/DTD/svg10.dtd">
<svg version="1.0" xmlns="http://www.w3.org/2000/svg"
 width="225.000000pt" height="225.000000pt" viewBox="0 0 225.000000 225.000000"
 preserveAspectRatio="xMidYMid meet">

<g transform="translate(0.000000,225.000000) scale(0.100000,-0.100000)"
fill="#000000" stroke="none">
<path d="M1010 2144 c-174 -37 -332 -160 -410 -316 -66 -136 -83 -257 -55
-393 46 -218 212 -397 430 -461 81 -24 239 -24 320 0 109 33 209 94 280 172
l30 32 223 -159 c141 -102 234 -162 255 -166 45 -7 80 24 123 109 39 78 40
120 4 153 -11 10 -130 67 -263 127 -154 68 -241 112 -239 120 65 243 12 458
-151 620 -145 143 -351 205 -547 162z m267 -165 c343 -115 411 -577 117 -788
-154 -110 -379 -107 -529 7 -111 84 -166 193 -173 339 -5 128 28 226 110 319
111 126 312 178 475 123z"/>
<path d="M1040 1924 c-140 -38 -241 -142 -276 -287 -17 -68 -14 -97 9 -97 10
0 16 18 21 57 18 152 151 285 303 300 42 5 53 9 51 22 -4 21 -41 23 -108 5z"/>
<path d="M530 839 c-181 -11 -277 -30 -358 -70 -75 -37 -111 -81 -144 -177
-20 -58 -23 -87 -23 -207 0 -135 1 -142 28 -187 18 -31 44 -57 75 -75 l47 -28
970 0 970 0 47 28 c31 18 57 44 75 75 27 45 28 52 28 187 0 120 -3 149 -23
207 -33 96 -69 140 -144 177 -89 44 -172 58 -422 72 -205 11 -220 10 -232 -6
-7 -9 -61 -100 -121 -202 -103 -177 -140 -223 -180 -223 -31 0 -81 68 -181
245 l-107 190 -80 1 c-44 1 -145 -2 -225 -7z"/>
<path d="M1087 827 l-37 -23 30 -29 30 -29 -40 -41 -41 -42 27 -64 c15 -35 35
-73 45 -83 24 -26 41 -11 84 75 l34 67 -34 40 c-19 22 -35 44 -35 48 0 4 11
20 25 34 l25 26 -38 22 -38 21 -37 -22z"/>
</g>
</svg>
