<?xml version="1.0"?>
<svg xmlns="http://www.w3.org/2000/svg" xmlns:xlink="http://www.w3.org/1999/xlink" version="1.1" viewBox="0 0 252 252" width="500px" height="500px"><g fill="none" fill-rule="nonzero" stroke="none" stroke-width="1" stroke-linecap="butt" stroke-linejoin="miter" stroke-miterlimit="10" stroke-dasharray="" stroke-dashoffset="0" font-family="none" font-weight="none" font-size="none" text-anchor="none" style="mix-blend-mode: normal"><path d="M0,252v-252h252v252z" fill="none"/><path d="M12.6,252c-6.95879,0 -12.6,-5.64121 -12.6,-12.6v-226.8c0,-6.95879 5.64121,-12.6 12.6,-12.6h226.8c6.95879,0 12.6,5.64121 12.6,12.6v226.8c0,6.95879 -5.64121,12.6 -12.6,12.6z" fill="#63432c"/><g fill="#f8f9fa"><g id="surface1"><path d="M212.62654,134.39195c-0.10828,-1.38061 -3.2891,-33.54071 -58.98726,-34.04152l-6.9978,-6.07739c-0.24364,-0.21657 -0.51434,-0.39253 -0.81212,-0.52788c-0.27071,-0.12182 -4.3584,-1.9897 -9.43417,-3.45152c0,3.27556 0,8.87922 0,11.45094c-3.46506,0 -6.93012,0 -10.39518,0.35192c-3.46506,0 -6.93012,0 -10.39518,0c0,-6.93012 0,-13.16994 0,-13.52186c0,-4.49375 2.08445,-7.62043 5.19759,-9.69134c1.17758,-0.70384 2.05738,-1.12344 3.01839,-1.36707c-4.99456,-9.79963 -12.73681,-20.83098 -20.69562,-20.83098c-54.66947,0 -63.29151,28.69504 -63.6299,29.92676c-0.08121,0.29778 -0.13535,0.60909 -0.13535,0.92041v104.30376c0,1.92203 1.55657,3.4786 3.4786,3.4786h166.32295c1.92203,0 3.4786,-1.55657 3.4786,-3.4786zM181.44098,137.43741c0,-5.88789 3.81698,-8.66265 8.66265,-8.31073c4.84567,0.33838 8.66265,4.15537 8.66265,9.69134c0,0.69031 0,8.31073 0,13.16994h-1.38061c-4.50729,-0.69031 -9.70488,-1.73253 -15.9447,-2.42284c0,-4.8592 0,-11.43741 0,-12.12772zM190.10364,170.35549c4.84567,0.33839 8.66265,4.15537 8.66265,9.70488c0,0.47374 0,4.3584 0,8.2972h-17.32531c0,-4.27719 0,-8.87922 0,-9.69134c0,-5.53598 3.81698,-8.66265 8.66265,-8.31074zM150.25543,134.31074c0,-6.5782 4.50729,-10.04327 10.39518,-9.69134c5.8879,0.33838 10.39518,4.84567 10.39518,11.42387c0,0.6903 0,6.93012 0,12.47963c-6.5782,-0.35192 -13.50832,-1.04222 -20.79037,-1.38061c0,-5.90143 0,-12.12772 0,-12.83156zM160.65061,166.53851c5.8879,0.69031 10.39518,4.84567 10.39518,11.43741c0,0.74445 0,5.54951 0,10.38165h-20.79037c0,-5.42769 0,-11.54569 0,-12.11418c0,-6.5782 4.50729,-10.39518 10.39518,-9.70488zM115.60482,132.93012c0,-6.93012 4.50729,-10.7471 10.39518,-10.7471c5.8879,0 10.39518,4.1689 10.39518,10.7471c0,1.04222 0,7.97235 0,13.86025c-3.46506,0 -6.93012,0 -10.39518,0c-3.46506,0 -6.93012,0 -10.39518,0c0,-6.23982 0,-13.16994 0,-13.86025zM126,164.11568c5.8879,0 10.39518,3.81698 10.39518,10.74711c0,0.85273 0,7.78285 0,13.49479h-20.79037c0,-5.79315 0,-12.9263 0,-13.49479c0,-6.59174 4.50729,-10.74711 10.39518,-10.74711zM80.9542,92.73c0,-6.5782 4.50729,-10.73357 10.39518,-11.42387c5.8879,-0.70384 10.39518,3.11314 10.39518,9.69134c0,0.35192 0,5.54951 0,11.43741c-7.28204,0.69031 -14.21216,1.39415 -20.79037,2.42284c0,-5.8879 0,-11.7758 0,-12.12772zM80.9542,136.04327c0,-6.5782 4.50729,-10.73357 10.39518,-11.42387c5.8879,-0.70384 10.39518,3.11314 10.39518,9.69134c0,0.6903 0,7.28204 0,12.81802c-7.28204,0.35192 -14.21216,1.04223 -20.79037,1.39415c0,-5.54951 0,-11.77579 0,-12.47963zM91.34938,166.20013c5.8879,-0.35192 10.39518,3.11314 10.39518,9.70488c0,0.86627 0,7.01133 0,12.45256h-20.79037c0,-4.94042 0,-9.96205 0,-10.72003c0,-6.59174 4.50729,-11.09903 10.39518,-11.43741zM53.23371,97.23728c0,-5.53598 3.81698,-9.35296 8.66265,-9.70488c4.84567,-0.33839 8.66265,2.77476 8.66265,8.32427c0,0.33839 0,5.53598 0,10.73357c-6.5782,1.39414 -12.47963,2.77476 -17.32531,4.8592c0,-6.23982 0,-13.52186 0,-14.21216zM53.23371,138.81802c0,-5.53598 3.81698,-9.35296 8.66265,-9.70488c4.84567,-0.33839 8.66265,2.77476 8.66265,8.32427c0,0.69031 0,7.28205 0,12.12772c-6.23982,0.69031 -11.43741,1.73253 -15.9447,2.42284h-1.38061c0,-4.84567 0,-12.47963 0,-13.16994zM61.89636,170.69388c4.84567,-0.33839 8.66265,2.77476 8.66265,8.32427c0,0.52788 0,5.06224 0,9.33943h-17.32531c0,-3.81698 0,-7.48507 0,-7.95881c0,-5.53598 3.81698,-9.35296 8.66265,-9.70488z"/></g></g></g></svg>
